<?xml version="1.0" standalone="no"?><!DOCTYPE svg PUBLIC "-//W3C//DTD SVG 1.1//EN" "http://www.w3.org/Graphics/SVG/1.1/DTD/svg11.dtd"><svg class="icon" width="200px" height="200.00px" viewBox="0 0 1024 1024" version="1.1" xmlns="http://www.w3.org/2000/svg"><path d="M898.925714 387.657143c-3.145143 10.386286-7.314286 20.48-12.434285 29.988571-35.108571 73.142857-125.074286 219.428571-125.074286 219.428572l-26.331429 46.08h126.537143l-242.102857 322.56 54.857143-219.428572H574.902857l34.377143-146.285714C585.142857 648.045714 547.84 658.285714 512 669.988571c0 0-53.394286 30.72-153.6-59.977142 0 0-67.291429-59.977143-27.794286-73.142858A1028.388571 1028.388571 0 0 1 458.605714 512l109.714286-13.897143s-209.92 0-259.657143-4.388571c-49.737143-4.388571-112.64-89.234286-126.537143-162.377143 0 0-20.48-40.228571 44.617143-21.211429 65.097143 19.017143 337.188571 73.142857 337.188572 73.142857a3145.142857 3145.142857 0 0 1-376.685715-133.851428 418.377143 418.377143 0 0 1-62.902857-219.428572A16.091429 16.091429 0 0 1 146.285714 19.017143s260.388571 119.222857 438.857143 185.051428c178.468571 65.828571 333.531429 98.742857 313.782857 183.588572z" fill="#2c2c2c" /></svg>